<svg width="380" height="181" viewBox="0 0 380 181" fill="none" xmlns="http://www.w3.org/2000/svg">
<g opacity="0.5">
<path opacity="0.1" d="M430.421 -27.3154C426.685 -24.0529 422.643 -21.073 418.011 -18.5172C406.933 -12.4161 393.109 -12.4161 382.031 -5.74964C349.951 13.5429 350.116 48.2766 338.024 79.4769C319.015 128.521 285.921 119.499 241.644 123.939C207.408 127.367 168.021 144.445 167.739 184.844C167.562 211.204 197.131 228.659 174.303 248.01C161.481 258.881 138.688 252.133 123.98 257.02C103.65 263.769 92.4187 276.231 83.4736 291L430.397 290.294L430.421 -27.3154ZM354.323 56.0856C355.867 52.4461 356.81 48.5946 358.354 44.9434C359.768 41.6102 361.324 38.3359 362.667 34.9673C365.343 28.242 368.159 21.8465 372.602 16.0752C378.448 8.47834 387.204 -1.87464 397.811 -0.75572C398.377 -0.696831 398.884 -0.0254936 398.895 0.516302C398.907 4.6622 394.994 7.53609 392.19 10.0331C387.44 14.2496 382.773 18.7017 378.365 23.2717C373.321 28.5129 369.137 34.1193 366.509 40.9389C365.307 44.0483 364.364 47.299 362.962 50.326C361.548 53.3766 359.438 55.6026 357.058 57.9583C356.445 58.559 355.655 58.4411 355.137 58.0054C354.488 57.7109 353.958 56.9454 354.323 56.0856ZM276.128 136.872C278.391 133.668 283.953 132.549 287.383 134.339C288.502 134.917 289.469 135.906 290.082 137.072C291.838 139.168 291.425 142.325 289.174 143.962C286.805 145.694 282.963 146.353 280.158 145.482C276.505 144.339 273.535 140.535 276.128 136.872ZM183.012 190.745C179.429 183.325 181.044 174.515 186.018 168.166C189.306 163.961 193.619 160.145 197.532 156.506C201.02 153.267 204.733 150.252 208.74 147.66C216.494 142.643 225.215 139.157 234.349 137.684C243.895 136.142 253.618 137.154 263.188 137.814C264.142 137.885 264.908 138.25 265.486 138.792C268.868 140.617 268.09 144.987 265.509 147.272C262.268 150.134 257.743 150.216 253.818 151.536C249.328 153.043 245.227 155.729 241.491 158.614C232.982 165.186 226.087 173.737 219.04 181.782C213.795 187.765 208.174 195.574 200.455 198.53C193.336 201.239 186.194 197.341 183.012 190.745ZM158.888 228.423C153.137 234.171 143.803 234.171 138.051 228.423C132.3 222.675 132.3 213.347 138.051 207.599C143.803 201.852 153.137 201.852 158.888 207.599C164.639 213.347 164.639 222.675 158.888 228.423ZM309.716 92.6684C297.059 105.318 276.54 105.318 263.883 92.6684C251.226 80.0187 251.226 59.513 263.883 46.8633C276.54 34.2135 297.059 34.2135 309.716 46.8633C322.373 59.513 322.373 80.0187 309.716 92.6684ZM335.974 36.4514C331.366 41.0566 323.905 41.0566 319.309 36.4514C314.701 31.8461 314.701 24.3906 319.309 19.7971C323.917 15.1918 331.377 15.1918 335.974 19.7971C340.57 24.3906 340.57 31.8579 335.974 36.4514Z" fill="white"/>
<path opacity="0.1" d="M123.148 -27.6696C124.735 -26.0822 124.735 -23.5116 123.148 -21.9331C121.562 -20.3457 118.993 -20.3457 117.416 -21.9331C115.829 -23.5206 115.829 -26.0912 117.416 -27.6696C119.002 -29.2571 121.562 -29.2571 123.148 -27.6696ZM114.225 -67.8523C108.772 -62.3954 108.772 -53.5381 114.225 -48.0812C119.678 -42.6243 128.529 -42.6243 133.982 -48.0812C139.436 -53.5381 139.436 -62.3954 133.982 -67.8523C128.529 -73.3092 119.687 -73.3182 114.225 -67.8523ZM214.842 -109C209.569 -100.278 205.495 -91.4567 190.659 -87.4159C170.766 -82.0041 150.675 -91.4838 130.819 -90.3203C66.1292 -86.514 119.372 -21.9331 92.6828 8.94122C71.0866 33.9347 35.6187 19.395 20.5032 52.7678C11.1562 73.3958 10.2819 95.6743 -1.8682 115.698C-12.9908 134.026 -28.0793 151.109 -50 154.158V130.959C-49.6845 130.977 -49.36 130.986 -49.0536 130.986C-41.969 131.013 -35.6776 126.982 -30.5129 122.49C-22.2746 115.328 -15.1721 106.678 -8.95277 97.7309C-5.81609 93.221 -2.9408 88.7653 -1.34542 83.4617C-0.624348 81.0625 2.28699 68.6514 1.03413 65.2059C-0.209728 61.7965 -3.85117 59.6137 -7.42049 60.4525C-14.6943 62.1573 -13.6668 71.673 -15.9833 77.0578C-19.6968 85.6986 -27.4844 92.1837 -36.1914 95.3947C-40.8604 97.1175 -45.6375 98.4163 -49.991 100.545V-109H169.982C161.735 -106.312 153.1 -104.409 144.528 -103.76C142.32 -103.597 142.23 -100.522 143.987 -99.9713C146.169 -98.4109 148.638 -98.3297 151.216 -97.6984C153.019 -97.2564 170.226 -93.9011 176.382 -93.5493C184.007 -93.1073 193.228 -94.2799 199.114 -99.5564C201.241 -101.469 203.17 -103.796 203.062 -106.817C203.034 -107.557 202.89 -108.287 202.683 -109H214.842ZM10.6244 40.9791C8.96596 35.7477 3.47677 33.8986 -1.03897 36.8932C-2.98587 38.183 -4.70743 40.2034 -4.83362 42.6026C-4.95981 42.8191 -5.06798 43.0536 -5.14009 43.3152C-6.75349 48.6729 -1.02094 52.3529 3.73816 51.929C9.22735 51.4329 12.2559 46.1293 10.6244 40.9791Z" fill="white"/>
</g>
</svg>
