<svg width="42" height="42" viewBox="0 0 42 42" fill="none" xmlns="http://www.w3.org/2000/svg">
<rect width="42" height="42" rx="8" fill="#E2E5F4"/>
<path d="M13 13C12.4696 13 11.9609 13.2107 11.5858 13.5858C11.2107 13.9609 11 14.4696 11 15V19C11.5304 19 12.0391 19.2107 12.4142 19.5858C12.7893 19.9609 13 20.4696 13 21C13 21.5304 12.7893 22.0391 12.4142 22.4142C12.0391 22.7893 11.5304 23 11 23V27C11 27.5304 11.2107 28.0391 11.5858 28.4142C11.9609 28.7893 12.4696 29 13 29H29C29.5304 29 30.0391 28.7893 30.4142 28.4142C30.7893 28.0391 31 27.5304 31 27V23C30.4696 23 29.9609 22.7893 29.5858 22.4142C29.2107 22.0391 29 21.5304 29 21C29 20.4696 29.2107 19.9609 29.5858 19.5858C29.9609 19.2107 30.4696 19 31 19V15C31 14.4696 30.7893 13.9609 30.4142 13.5858C30.0391 13.2107 29.5304 13 29 13H13ZM24.5 16L26 17.5L17.5 26L16 24.5L24.5 16ZM17.81 16.04C18.79 16.04 19.58 16.83 19.58 17.81C19.58 18.2794 19.3935 18.7296 19.0616 19.0616C18.7296 19.3935 18.2794 19.58 17.81 19.58C16.83 19.58 16.04 18.79 16.04 17.81C16.04 17.3406 16.2265 16.8904 16.5584 16.5584C16.8904 16.2265 17.3406 16.04 17.81 16.04ZM24.19 22.42C25.17 22.42 25.96 23.21 25.96 24.19C25.96 24.6594 25.7735 25.1096 25.4416 25.4416C25.1096 25.7735 24.6594 25.96 24.19 25.96C23.21 25.96 22.42 25.17 22.42 24.19C22.42 23.7206 22.6065 23.2704 22.9384 22.9384C23.2704 22.6065 23.7206 22.42 24.19 22.42Z" fill="#0BB8E3" fill-opacity="0.556863"/>
</svg>
