<svg width="24" height="24" viewBox="0 0 24 24" fill="none" xmlns="http://www.w3.org/2000/svg">
<rect width="24" height="24" rx="8" fill="#E2E5F4"/>
<path d="M11.9998 8.66667C11.6332 8.66667 11.3192 8.536 11.0578 8.27467C10.7965 8.01333 10.6661 7.69956 10.6665 7.33333C10.6665 6.96667 10.7972 6.65267 11.0585 6.39133C11.3198 6.13 11.6336 5.99956 11.9998 6C12.3665 6 12.6805 6.13067 12.9418 6.392C13.2032 6.65333 13.3336 6.96711 13.3332 7.33333C13.3332 7.7 13.2025 8.014 12.9412 8.27533C12.6798 8.53667 12.3661 8.66711 11.9998 8.66667ZM11.9998 18C11.7221 18 11.4858 17.9027 11.2912 17.708C11.0965 17.5133 10.9994 17.2773 10.9998 17V11C10.9998 10.7222 11.0972 10.486 11.2918 10.2913C11.4865 10.0967 11.7225 9.99956 11.9998 10C12.2776 10 12.5138 10.0973 12.7085 10.292C12.9032 10.4867 13.0003 10.7227 12.9998 11V17C12.9998 17.2778 12.9025 17.514 12.7078 17.7087C12.5132 17.9033 12.2772 18.0004 11.9998 18Z" fill="#0BB8E3"/>
</svg>
