<svg width="25" height="25" viewBox="0 0 25 25" fill="none" xmlns="http://www.w3.org/2000/svg">
<path fill-rule="evenodd" clip-rule="evenodd" d="M12.2814 2.08325C6.65164 2.08899 2.08924 6.65139 2.0835 12.2812C2.0835 17.9133 6.64926 22.4791 12.2814 22.4791C17.9136 22.4791 22.4793 17.9133 22.4793 12.2812C22.4736 6.65139 17.9112 2.08899 12.2814 2.08325ZM12.2814 20.9166C7.5122 20.9166 3.646 17.0504 3.646 12.2812C3.646 7.51196 7.5122 3.64575 12.2814 3.64575C17.0506 3.64575 20.9168 7.51196 20.9168 12.2812C20.9111 17.048 17.0482 20.9108 12.2814 20.9166Z" fill="#0BB8E3"/>
<path d="M11.9366 13.5009C11.9366 13.0968 12.0376 12.7244 12.2397 12.3839C12.4455 12.0434 12.7261 11.7758 13.0816 11.5812C13.2837 11.4764 13.4409 11.323 13.5532 11.1209C13.6654 10.9151 13.7216 10.6887 13.7216 10.4417C13.7216 10.206 13.6636 9.99269 13.5475 9.80184C13.4353 9.60725 13.2819 9.45382 13.0873 9.34156C12.8927 9.22555 12.6775 9.16755 12.4417 9.16755C12.2097 9.16755 11.9964 9.22555 11.8018 9.34156C11.6072 9.45382 11.4519 9.60725 11.3359 9.80184C11.2237 9.99269 11.1675 10.206 11.1675 10.4417H10C10 9.99269 10.1085 9.58479 10.3256 9.21807C10.5464 8.84759 10.842 8.55197 11.2125 8.33118C11.5867 8.11039 11.9964 8 12.4417 8C12.8945 8 13.3062 8.11039 13.6767 8.33118C14.0471 8.55197 14.3409 8.84759 14.5579 9.21807C14.7787 9.58479 14.8891 9.99269 14.8891 10.4417C14.8891 10.902 14.7768 11.3268 14.5523 11.7159C14.3315 12.1014 14.0265 12.4008 13.6374 12.6141C13.4727 12.7001 13.3417 12.8217 13.2444 12.9789C13.1509 13.1361 13.1041 13.3101 13.1041 13.5009H11.9366ZM12.5484 16.156C12.3763 16.156 12.2303 16.0961 12.1106 15.9764C11.9908 15.8529 11.9309 15.7051 11.9309 15.5329C11.9309 15.3645 11.9908 15.2223 12.1106 15.1063C12.2303 14.9866 12.3763 14.9267 12.5484 14.9267C12.7168 14.9267 12.8609 14.9866 12.9806 15.1063C13.1004 15.2223 13.1602 15.3645 13.1602 15.5329C13.1602 15.7051 13.1004 15.8529 12.9806 15.9764C12.8609 16.0961 12.7168 16.156 12.5484 16.156Z" fill="#0BB8E3"/>
</svg>
